<svg width="100" height="100" viewBox="0 0 100 100" fill="none" xmlns="http://www.w3.org/2000/svg">
  <defs>
    <style>
      .icon-stroke {
        stroke: #4A5568;
        stroke-width: 8;
        stroke-linecap: round;
        stroke-linejoin: round;
      }
      .sand-fill {
        fill: #4A5568;
      }
    </style>
  </defs>

  <!-- Icon content scaled and centered for maskable safe zone (80% center area) -->
  <g transform="translate(50, 50) scale(0.75) translate(-50, -50)">
    <path d="M38 35 H62 L50 50 Z" class="sand-fill" />
    <path d="M50 50 C 58 58 72 70 72 90 H 28 C 28 70 42 58 50 50 Z" class="sand-fill" />

    <line x1="15" y1="10" x2="85" y2="10" class="icon-stroke" />
    <line x1="15" y1="90" x2="85" y2="90" class="icon-stroke" />
    <path d="M25 10 C 25 35, 45 45, 50 50 C 55 45, 75 35, 75 10" class="icon-stroke" fill="none" />
    <path d="M25 90 C 25 65, 45 55, 50 50 C 55 55, 75 65, 75 90" class="icon-stroke" fill="none" />

    <path d="M36 71 L 50 84 L 78 56" stroke="white" stroke-width="16" stroke-linecap="round" stroke-linejoin="round" />

    <path d="M36 71 L 50 84 L 78 56" class="icon-stroke" fill="none" />
  </g>
</svg>